<svg width="320" height="52" viewBox="0 0 320 52" fill="none" xmlns="http://www.w3.org/2000/svg">
<mask id="path-1-inside-1_1_35976" fill="white">
<path fill-rule="evenodd" clip-rule="evenodd" d="M0 26C0 11.6406 11.6406 0 26 0H242C252.816 0 262.089 6.60419 266.007 16H269.993C273.911 6.60419 283.184 0 294 0C308.359 0 320 11.6406 320 26C320 40.3594 308.359 52 294 52C283.969 52 275.265 46.3196 270.929 38H265.071C260.735 46.3196 252.031 52 242 52H26C11.6406 52 0 40.3594 0 26Z"/>
</mask>
<path fill-rule="evenodd" clip-rule="evenodd" d="M0 26C0 11.6406 11.6406 0 26 0H242C252.816 0 262.089 6.60419 266.007 16H269.993C273.911 6.60419 283.184 0 294 0C308.359 0 320 11.6406 320 26C320 40.3594 308.359 52 294 52C283.969 52 275.265 46.3196 270.929 38H265.071C260.735 46.3196 252.031 52 242 52H26C11.6406 52 0 40.3594 0 26Z" fill="#FF4929"/>
<path fill-rule="evenodd" clip-rule="evenodd" d="M0 26C0 11.6406 11.6406 0 26 0H242C252.816 0 262.089 6.60419 266.007 16H269.993C273.911 6.60419 283.184 0 294 0C308.359 0 320 11.6406 320 26C320 40.3594 308.359 52 294 52C283.969 52 275.265 46.3196 270.929 38H265.071C260.735 46.3196 252.031 52 242 52H26C11.6406 52 0 40.3594 0 26Z" fill="url(#paint0_linear_1_35976)" fill-opacity="0.15"/>
<path d="M266.007 16L264.623 16.5773L265.008 17.5H266.007V16ZM269.993 16V17.5H270.992L271.377 16.5773L269.993 16ZM270.929 38L272.259 37.3067L271.839 36.5H270.929V38ZM265.071 38V36.5H264.161L263.741 37.3067L265.071 38ZM26 -1.5C10.8122 -1.5 -1.5 10.8122 -1.5 26H1.5C1.5 12.469 12.469 1.5 26 1.5V-1.5ZM242 -1.5H26V1.5H242V-1.5ZM267.392 15.4227C263.249 5.4877 253.442 -1.5 242 -1.5V1.5C252.189 1.5 260.93 7.72068 264.623 16.5773L267.392 15.4227ZM269.993 14.5H266.007V17.5H269.993V14.5ZM271.377 16.5773C275.07 7.72068 283.811 1.5 294 1.5V-1.5C282.558 -1.5 272.751 5.4877 268.608 15.4227L271.377 16.5773ZM294 1.5C307.531 1.5 318.5 12.469 318.5 26H321.5C321.5 10.8122 309.188 -1.5 294 -1.5V1.5ZM318.5 26C318.5 39.531 307.531 50.5 294 50.5V53.5C309.188 53.5 321.5 41.1878 321.5 26H318.5ZM294 50.5C284.55 50.5 276.347 45.1501 272.259 37.3067L269.599 38.6933C274.183 47.4891 283.388 53.5 294 53.5V50.5ZM265.071 39.5H270.929V36.5H265.071V39.5ZM242 53.5C252.612 53.5 261.817 47.4891 266.401 38.6933L263.741 37.3067C259.653 45.1501 251.45 50.5 242 50.5V53.5ZM26 53.5H242V50.5H26V53.5ZM-1.5 26C-1.5 41.1878 10.8122 53.5 26 53.5V50.5C12.469 50.5 1.5 39.531 1.5 26H-1.5Z" fill="url(#paint1_linear_1_35976)" fill-opacity="0.34" mask="url(#path-1-inside-1_1_35976)"/>
<defs>
<linearGradient id="paint0_linear_1_35976" x1="160" y1="0" x2="160" y2="52" gradientUnits="userSpaceOnUse">
<stop stop-color="#BEBEBE"/>
<stop offset="0.84" stop-color="white" stop-opacity="0"/>
</linearGradient>
<linearGradient id="paint1_linear_1_35976" x1="160" y1="0" x2="160" y2="52" gradientUnits="userSpaceOnUse">
<stop stop-color="white"/>
<stop offset="1" stop-color="white" stop-opacity="0"/>
</linearGradient>
</defs>
</svg>
